<?xml version="1.0" encoding="utf-8"?>
<!-- Generator: Adobe Illustrator 27.5.0, SVG Export Plug-In . SVG Version: 6.00 Build 0)  -->
<svg version="1.1" xmlns="http://www.w3.org/2000/svg" xmlns:xlink="http://www.w3.org/1999/xlink" x="0px" y="0px"
	 viewBox="0 0 500 500" style="enable-background:new 0 0 500 500;" xml:space="preserve">
<g id="BACKGROUND">
	<rect style="fill:#A8F8F0;" width="500" height="500"/>
</g>
<g id="OBJECTS">
	<g>
		<defs>
			<rect id="SVGID_1_" y="0" width="500" height="500"/>
		</defs>
		<clipPath id="SVGID_00000072992238852506341050000010821627234538304162_">
			<use xlink:href="#SVGID_1_"  style="overflow:visible;"/>
		</clipPath>
		
			<rect x="0" y="299.81" style="clip-path:url(#SVGID_00000072992238852506341050000010821627234538304162_);fill:#25D3FD;" width="500" height="200.19"/>
		<path style="clip-path:url(#SVGID_00000072992238852506341050000010821627234538304162_);fill:#71F2F7;" d="M-580.035,452.51
			c-41.151,13.057,762.413-218.632,1643.353,0C1063.318,452.51,358.883,655.596-580.035,452.51z"/>
		<g style="clip-path:url(#SVGID_00000072992238852506341050000010821627234538304162_);">
			<g style="opacity:0.7;">
				<g>
					<g>
						<path style="fill:#71F2F7;" d="M337.142,140.091h-59.494C295.576,129.421,319.572,128.843,337.142,140.091z"/>
					</g>
					<g>
						<path style="fill:#71F2F7;" d="M596.165,43.366H378.167c24.346-18.669,54.977-30.914,85.653-31.427
							c30.675-0.513,61.437,9.071,86.393,26.916C566.729,32.444,581.389,33.591,596.165,43.366z"/>
					</g>
					<g>
						<path style="fill:#71F2F7;" d="M527.769,200.789H424.887c11.49-15.569,25.946-25.781,40.423-26.209
							c14.477-0.428,28.995,7.565,40.772,22.447C513.877,191.681,520.796,192.638,527.769,200.789z"/>
					</g>
					<g>
						<path style="fill:#71F2F7;" d="M57.866,47.876H-91.306c5.869-8.461,15.788-16.526,26.216-19.51
							c10.428-2.984,21.999-2.465,32.061,1.437C-24.141,17.572-13.746,10.55-0.545,8.269c13.201-2.281,25.607-0.113,36.139,7.545
							C46.125,23.472,55.064,35.81,57.866,47.876z"/>
					</g>
					<g>
						<path style="fill:#71F2F7;" d="M436.368,107.669H287.197c5.869-8.461,15.788-16.526,26.216-19.51
							c10.428-2.984,21.999-2.465,32.061,1.437c8.888-12.231,19.282-19.253,32.483-21.534c13.201-2.281,25.607-0.113,36.139,7.545
							C424.628,83.265,433.567,95.603,436.368,107.669z"/>
					</g>
				</g>
			</g>
			<g>
				<path style="fill:#FFFFFF;" d="M505.495,82.642H176.322c48.051-14.873,96.103-28.968,131.764-19.888
					c8.561-30.285,38.255-57.267,69.727-57.289c31.472-0.022,59.909,27.453,68.512,57.727
					C474.927,59.761,496.665,67.769,505.495,82.642z"/>
				<path style="fill:#DBFDF7;" d="M432.596,73.49c-2.35-29.769-19.192-55.241-52.713-67.979c-0.689-0.021-1.379-0.046-2.07-0.045
					c-31.472,0.022-61.166,27.003-69.727,57.289c-52.823-18.7-111.402-0.706-131.764,19.888h329.173L432.596,73.49z"/>
				<path style="fill:#FFFFFF;" d="M257.865,127.902H-85.681c13.516-19.485,36.36-38.059,60.377-44.931
					c24.016-6.872,50.664-5.677,73.837,3.31c20.469-28.169,44.407-44.34,74.809-49.593c30.402-5.254,58.974-0.259,83.229,17.377
					C215.97,60.898,253.921,110.916,257.865,127.902z"/>
				<path style="fill:#FFFFFF;" d="M588.319,179.523h-270.46c9.563-10.382,21.201-14.621,35.236-16.129
					c14.035-1.508,28.278,1.115,41.592,5.802c18.117-20.386,41.618-32.62,68.89-32.42c14.845,0.109,54.302,12.753,72.04,33.311
					C552.24,163.342,575.043,167.458,588.319,179.523z"/>
				<path style="fill:#DBFDF7;" d="M512.817,175.109c-10.495-16.441-45.112-33.971-82.313-31.975
					c-13.479,5.534-25.52,14.476-35.817,26.062c-13.315-4.686-27.558-7.31-41.592-5.802c-14.035,1.508-25.673,5.747-35.236,16.129
					h270.461L512.817,175.109z"/>
				<path style="fill:#FFFFFF;" d="M444.25,218.743h-621.639c54.809-36.65,129.636-40.149,185.586-5.267
					c12.857-46.98,52.188-85.439,99.534-96.872c47.346-11.433,100.337,4.751,133.217,40.686c23.99-11.153,51.915-9.852,77.021-1.508
					c25.105,8.344,46.782,26.56,59.324,49.853C400.061,194.221,425.286,201.742,444.25,218.743z"/>
				<path style="fill:#DBFDF7;" d="M448.881,218.743l-145.736-5.903c-30.501-39.795-85.403-59.749-134.753-50.885
					c-5.32-18.103-16.893-34.304-32.292-45.208c-1.604-1.136-3.258-2.199-4.939-3.218c-6.324,0.569-12.611,1.579-18.799,3.074
					c-47.346,11.433-86.678,49.893-99.534,96.872c-55.95-34.882-130.778-31.382-185.586,5.267H448.881z"/>
				<path style="fill:#DBFDF7;" d="M192.116,106.461c-8.811-28.793-29.191-54.288-55.87-71.365
					c-4.261,0.325-8.561,0.841-12.904,1.592c-30.402,5.254-54.34,21.425-74.809,49.593c-23.173-8.987-49.821-10.182-73.837-3.31
					c-24.016,6.872-46.861,25.446-60.377,44.931h343.545C247.514,101.127,192.116,106.461,192.116,106.461z"/>
			</g>
		</g>
		<polygon style="clip-path:url(#SVGID_00000072992238852506341050000010821627234538304162_);fill:#71F2F7;" points="0,258.18 
			500,258.18 500,264.88 64.08,269.1 500,277.22 500,282.819 0,275.69 0,263.15 294.6,263.15 0,258.53 		"/>
		<polygon style="clip-path:url(#SVGID_00000072992238852506341050000010821627234538304162_);fill:#71F2F7;" points="0,288.96 
			500,283.15 500,288.96 		"/>
		<polygon style="clip-path:url(#SVGID_00000072992238852506341050000010821627234538304162_);fill:#23BAF7;" points="500,299.81 
			500,317.04 0,310.15 0,299.81 		"/>
		<polygon style="clip-path:url(#SVGID_00000072992238852506341050000010821627234538304162_);fill:#23BAF7;" points="0,317.04 
			500,317.04 500,323.37 64.08,327.359 500,335.03 500,340.319 0,333.58 0,321.73 294.6,321.73 0,317.37 		"/>
		<polygon style="clip-path:url(#SVGID_00000072992238852506341050000010821627234538304162_);fill:#23BAF7;" points="0.675,346.12 
			499.325,340.63 499.325,346.12 		"/>
		<g style="clip-path:url(#SVGID_00000072992238852506341050000010821627234538304162_);">
			<g>
				<polygon style="opacity:0.3;fill:#23BAF7;" points="500,469.132 0,477.654 0,500 500,500 500,485.398 364.608,486.073 
					500,483.597 				"/>
				<path style="opacity:0.3;fill:#23BAF7;" d="M0,460.25h500V413.93c-108.474,1.766-239.345-7.237-383.215-39.776
					c-0.029,0.007-0.053,0.013-0.081,0.02c3.879,2.141,110.909,59.984,350.707,59.984H0V460.25z"/>
			</g>
			<path style="opacity:0.3;fill:#23BAF7;" d="M116.583,374.106l0.007,0.004c0.065,0.015,0.13,0.029,0.195,0.043
				c0.061-0.015,0.124-0.031,0.191-0.047H116.583z"/>
		</g>
		<g style="clip-path:url(#SVGID_00000072992238852506341050000010821627234538304162_);">
			<g>
				<g>
					<g>
						<path style="fill:#94696C;" d="M501.766,265.662l0.99,0.453c0,0-34.945,47.802-16.5,125.855l-10.569-3.517
							C475.687,388.454,468.292,313.028,501.766,265.662z"/>
					</g>
				</g>
				<path style="fill:#30C8DD;" d="M488.366,262.736c1.506-0.621,6.602-1.224,7.737,0.453c-1.772-2.618-4.76-4.375-7.909-4.651
					c-5.311-0.464-9.578,3.557-12.849,7.257c-1.858,2.102-3.361,4.519-4.428,7.114c-0.548,1.333-2.603,6.118-1.767,7.473
					c-2.628-4.259-5.316-8.859-5.147-13.861c0.166-4.901,3.246-9.47,7.475-11.951c4.229-2.481,9.45-2.99,14.238-1.936
					c4.789,1.055,9.166,3.581,12.9,6.759c-1.102-4.991-5.469-8.808-10.331-10.386c-4.861-1.578-10.146-1.228-15.168-0.273
					c1.865-4.932,6.377-8.77,11.545-9.819c5.167-1.049,10.819,0.725,14.459,4.539c3.641,3.814,5.498,9.77,4.21,14.882
					c2.364-6.635,1.802-14.254-1.511-20.47c5.349,4.119,7.481,12.027,5.115,18.35c5.723-4.246,10.625-6.348,16.036-5.508
					c4.166,0.647,7.969,3.32,9.989,7.02c2.02,3.701,4.125,10.833,2.415,14.687c-2.545-4.739-8.867-10.933-13.974-12.625
					c-5.106-1.692-10.75-1.107-15.621,1.175c6.846-0.839,14.028,1.767,18.745,6.8c4.716,5.033,6.849,12.369,5.567,19.147
					c-1.282,6.777-5.947,12.827-12.176,15.79c3.929-5.683,4.682-13.421,1.922-19.755c-2.76-6.334-8.939-11.051-15.777-12.043
					c2.809,1.862,4.626,5.139,4.718,8.508c0.092,3.369-1.544,6.74-4.247,8.752c1.193-5.105-0.22-10.75-3.678-14.691
					c0.227,2.539-0.837,5.161-2.77,6.823c1.089-2.445,1.204-5.307,0.315-7.831c-2.859,0.647-5.374,2.671-6.616,5.327
					c-1.059-3.331,1.819-7.272,5.313-7.279c-2.869-1.134-6.253-0.875-8.915,0.683s-4.546,4.381-4.963,7.438
					c-1.01-3.144-1.26-6.612-0.192-9.737C483.896,266.354,485.841,263.778,488.366,262.736z M489.873,260.686
					c-1.843-0.918-4.224-0.62-5.784,0.723c-1.56,1.344-2.208,3.654-1.573,5.613C483.236,263.621,486.402,260.894,489.873,260.686z
					 M510.103,251.512c1.456-2.308,2.134-5.099,1.897-7.818c-0.237-2.719-1.386-5.351-3.219-7.373
					C509.911,241.292,510.358,246.419,510.103,251.512z M513.497,285.337c1.528-2.023,1.462-4.947,0.314-7.208
					c-1.147-2.261-3.208-3.935-5.416-5.181C511.482,276.305,513.324,280.781,513.497,285.337z"/>
				<path style="fill:#7E5B5E;" d="M489.185,288.807c0.542,0.436,1.081,0.874,1.62,1.315c-0.284,0.763-0.566,1.546-0.847,2.344
					c-0.511-0.598-1.021-1.197-1.527-1.799C488.678,290.045,488.929,289.425,489.185,288.807z M492.658,285.391
					c0.118-0.286,0.235-0.561,0.353-0.841c-0.503-0.342-0.999-0.694-1.488-1.055c-0.115,0.247-0.232,0.492-0.346,0.74
					C491.673,284.618,492.168,285.003,492.658,285.391z M483.068,319.676c-1.064,0.031-2.129,0.061-3.193,0.092
					c-0.104,0.506-0.205,1.01-0.305,1.515c1.098-0.103,2.195-0.206,3.293-0.309C482.93,320.538,482.999,320.106,483.068,319.676z
					 M475.005,372.771c2.702,1.715,5.502,3.283,8.368,4.742c-0.118-0.725-0.225-1.444-0.334-2.163
					c-2.682-1.47-5.364-2.94-8.046-4.41C474.996,371.563,475,372.175,475.005,372.771z M477.07,336.74
					c-0.161,1.266-0.312,2.523-0.451,3.766c1.335,1.813,2.76,3.561,4.271,5.231c0.015-1.855,0.061-3.68,0.131-5.478
					C479.704,339.086,478.387,337.913,477.07,336.74z M486.063,297.016c-0.156,0.451-0.306,0.903-0.458,1.355
					c0.605,0.664,1.209,1.329,1.813,1.993c0.171-0.587,0.344-1.165,0.519-1.738C487.31,298.093,486.685,297.556,486.063,297.016z
					 M475.388,355.492c-0.121,2.251-0.211,4.428-0.273,6.512c2.17,1.63,4.507,3.094,6.781,4.468
					c0.003,0.001,0.005,0.003,0.008,0.004c-0.22-2.105-0.404-4.183-0.55-6.231C479.365,358.661,477.377,357.077,475.388,355.492z
					 M486.181,304.856c-0.825-0.16-1.649-0.321-2.474-0.481c-0.284,0.962-0.561,1.925-0.828,2.888
					c0.903-0.034,1.806-0.048,2.705-0.031C485.779,306.429,485.978,305.637,486.181,304.856z M478.652,326.211
					c-0.076,0.434-0.152,0.868-0.224,1.3c1.108,0.742,2.217,1.484,3.325,2.226c0.078-0.78,0.161-1.556,0.248-2.323
					C480.873,327.048,479.755,326.648,478.652,326.211z"/>
			</g>
			<g>
				<g>
					<g>
						<path style="fill:#94696C;" d="M468.381,137.804l-2.127,0.012c0,0,23.83,113.214-71.736,237.407l21.65,2.229
							C416.168,377.452,489.94,249.059,468.381,137.804z"/>
					</g>
				</g>
				<path style="fill:#30C8DD;" d="M499.156,158.62c-0.609,6.424-3.84,12.398-8.165,17.187c1.714-5.779,0.627-12.32-2.864-17.234
					c-3.49-4.914-9.309-8.095-15.33-8.38c6.219,2.82,8.176,12.152,3.615,17.234c-0.078-5.727-2.93-11.353-7.503-14.803
					c-3.612,3.781-5.707,8.972-5.732,14.201c-2.106-4.514-1.895-10.038,0.55-14.378c-9.325,4.241-16.376,13.159-18.354,23.21
					c-3.198-5.756-3.403-13.074-0.533-19.001c2.871-5.926,8.74-10.302,15.239-11.361c-12.975-3.727-27.771-0.291-37.776,8.773
					c-10.005,9.064-14.881,23.449-12.45,36.729c-8.713-10.282-12.161-24.805-8.999-37.906c3.162-13.101,12.855-24.453,25.299-29.628
					c12.444-5.175,27.328-4.045,38.848,2.95c-6.842-7.978-16.424-13.554-26.878-14.643c-10.454-1.089-26.691,4.862-35.031,11.258
					c0.052-8.237,9.531-19.249,16.102-24.217c6.57-4.968,15.491-6.672,23.431-4.477c10.312,2.851,17.354,10.534,24.134,22.694
					c0.867-13.163,11.017-25.534,23.854-28.572c-10.894,8.409-18.017,21.527-19.137,35.243c1.814-10.141,9.907-19.256,19.455-23.123
					c9.548-3.868,21.04-2.486,29.4,3.534c8.36,6.02,13.313,16.481,12.672,26.763c-8.176-5.735-17.307-10.606-27.233-11.701
					c-9.926-1.095-20.772,2.194-26.745,10.198c9.204-2.66,19.03-3.642,28.406-1.673c9.376,1.969,18.265,7.071,23.803,14.888
					c5.539,7.817,7.354,18.43,3.711,27.291c-3.718,9.044-12.202,15.077-20.304,20.551c2.578-1.741,2.762-11.914,2.858-14.729
					c0.186-5.479-0.549-10.991-2.169-16.228c-2.852-9.218-7.222-19.808-17.053-23.249c-5.83-2.04-12.564-1.312-17.823,1.928
					c3.369-2.075,11.96,3.092,14.143,5.409C498.257,147.243,499.651,153.394,499.156,158.62z M501.572,155.693
					c2.704-2.979,3.408-7.614,1.708-11.261c-1.699-3.647-5.7-6.09-9.72-5.936C499.575,141.656,503.023,149.056,501.572,155.693z
					 M479.461,79.909c-4.89,2.128-9.051,5.892-11.657,10.545c-2.606,4.653-3.643,10.167-2.903,15.448
					C468.54,96.628,473.454,87.855,479.461,79.909z M450.719,145.453c-4.933,0.447-9.949,1.772-13.808,4.877
					c-3.86,3.104-6.328,8.26-5.232,13.09C435.648,155.443,442.525,148.953,450.719,145.453z"/>
				<path style="fill:#7E5B5E;" d="M472.04,193.05c-1.385,0.666-2.774,1.323-4.165,1.978c0.14-1.647,0.266-3.267,0.374-4.855
					c1.313-0.351,2.626-0.699,3.941-1.04C472.15,190.44,472.099,191.745,472.04,193.05z M472.319,179.39
					c-0.003-0.532-0.015-1.063-0.022-1.595c-1.162,0.25-2.328,0.479-3.498,0.684c-0.015,0.592-0.028,1.177-0.047,1.78
					C469.935,179.961,471.126,179.674,472.319,179.39z M457.605,251.502c1.872,1.065,3.745,2.131,5.617,3.196
					c0.227-0.979,0.453-1.958,0.674-2.943c-1.871-0.91-3.742-1.82-5.613-2.729C458.061,249.848,457.836,250.673,457.605,251.502z
					 M431.473,346.816c-5.957,0.463-11.915,0.926-17.872,1.39c-0.771,1.194-1.54,2.387-2.333,3.584
					c6.279-0.297,12.526-0.839,18.715-1.723C430.472,349.011,430.97,347.923,431.473,346.816z M445.391,287.329
					c-1.319,3.259-2.704,6.545-4.168,9.861c4.034-1.76,7.975-3.728,11.809-5.885c0.752-2.326,1.493-4.685,2.223-7.07
					C451.968,285.267,448.68,286.298,445.391,287.329z M466.524,207.624c-0.149,1.16-0.306,2.329-0.472,3.512
					c1.61-0.698,3.221-1.396,4.831-2.094c0.092-0.927,0.188-1.852,0.272-2.781C469.614,206.725,468.07,207.178,466.524,207.624z
					 M428.739,322.66c-1.906,3.53-3.903,7.083-5.986,10.656c0.006-0.001,0.011-0.001,0.017-0.002
					c5.155-0.62,10.494-1.351,15.668-2.51c1.564-3.762,3.153-7.711,4.747-11.818C438.369,320.211,433.554,321.435,428.739,322.66z
					 M463.803,224.841c1.614,0.692,3.212,1.442,4.792,2.229c0.299-1.929,0.579-3.866,0.846-5.808
					c-1.598-0.377-3.195-0.754-4.793-1.131C464.382,221.685,464.1,223.255,463.803,224.841z M453.965,263.667
					c-0.46,1.438-0.937,2.884-1.424,4.337c2.57-0.431,5.14-0.862,7.71-1.293c0.218-0.828,0.431-1.663,0.646-2.496
					C458.581,264.106,456.27,263.92,453.965,263.667z"/>
			</g>
			<g>
				<g>
					<g>
						<path style="fill:#94696C;" d="M400.339,234.927l-1.325,0.007c0,0,14.848,70.54-44.696,147.921l13.489,1.389
							C367.806,384.244,413.772,304.246,400.339,234.927z"/>
					</g>
				</g>
				<path style="fill:#30C8DD;" d="M419.514,247.896c-0.379,4.003-2.393,7.725-5.087,10.709c1.068-3.601,0.391-7.676-1.784-10.738
					c-2.175-3.062-5.8-5.044-9.551-5.221c3.875,1.757,5.094,7.572,2.252,10.738c-0.049-3.568-1.826-7.074-4.675-9.223
					c-2.25,2.356-3.556,5.59-3.571,8.848c-1.312-2.812-1.181-6.254,0.343-8.958c-5.81,2.643-10.204,8.199-11.436,14.461
					c-1.993-3.587-2.12-8.146-0.332-11.839c1.789-3.693,5.445-6.419,9.495-7.079c-8.085-2.322-17.303-0.181-23.537,5.466
					c-6.234,5.647-9.272,14.61-7.757,22.884c-5.429-6.406-7.577-15.455-5.607-23.618c1.97-8.163,8.01-15.236,15.763-18.46
					c7.753-3.225,17.027-2.52,24.205,1.838c-4.263-4.971-10.233-8.445-16.747-9.124c-6.513-0.679-16.631,3.029-21.827,7.015
					c0.032-5.132,5.939-11.993,10.033-15.089c4.094-3.095,9.652-4.157,14.599-2.79c6.425,1.777,10.812,6.564,15.037,14.14
					c0.54-8.201,6.864-15.91,14.862-17.802c-6.787,5.239-11.226,13.413-11.924,21.959c1.13-6.318,6.172-11.998,12.122-14.407
					c5.949-2.41,13.109-1.549,18.318,2.202c5.209,3.751,8.295,10.269,7.896,16.675c-5.094-3.574-10.783-6.608-16.968-7.29
					c-6.185-0.682-12.943,1.367-16.664,6.354c5.735-1.657,11.857-2.269,17.699-1.042c5.842,1.227,11.38,4.406,14.831,9.276
					c3.451,4.871,4.582,11.484,2.312,17.005c-2.316,5.635-7.602,9.394-12.651,12.805c1.606-1.085,1.721-7.423,1.781-9.177
					c0.116-3.414-0.342-6.848-1.352-10.111c-1.777-5.744-4.5-12.342-10.625-14.486c-3.633-1.271-7.828-0.818-11.105,1.201
					c2.099-1.293,7.452,1.927,8.812,3.37C418.954,240.808,419.822,244.64,419.514,247.896z M421.019,246.073
					c1.685-1.856,2.123-4.744,1.064-7.016c-1.059-2.272-3.552-3.794-6.056-3.698C419.775,237.327,421.923,241.938,421.019,246.073z
					 M407.243,198.854c-3.047,1.326-5.639,3.671-7.263,6.57c-1.624,2.899-2.27,6.335-1.809,9.625
					C400.438,209.271,403.5,203.805,407.243,198.854z M389.334,239.693c-3.074,0.278-6.199,1.104-8.604,3.038
					c-2.405,1.934-3.943,5.146-3.26,8.156C379.944,245.917,384.229,241.873,389.334,239.693z"/>
				<path style="fill:#7E5B5E;" d="M402.619,269.349c-0.863,0.415-1.729,0.824-2.595,1.233c0.087-1.026,0.166-2.035,0.233-3.025
					c0.818-0.219,1.636-0.435,2.455-0.648C402.687,267.722,402.655,268.536,402.619,269.349z M402.792,260.838
					c-0.002-0.331-0.009-0.663-0.013-0.994c-0.724,0.156-1.45,0.299-2.18,0.426c-0.01,0.369-0.017,0.733-0.03,1.109
					C401.307,261.193,402.049,261.015,402.792,260.838z M393.625,305.768c1.167,0.664,2.333,1.328,3.5,1.992
					c0.142-0.61,0.283-1.22,0.42-1.834c-1.166-0.567-2.332-1.134-3.498-1.701C393.909,304.738,393.768,305.252,393.625,305.768z
					 M377.343,365.155c-3.712,0.289-7.424,0.577-11.136,0.866c-0.481,0.744-0.959,1.487-1.453,2.233
					c3.912-0.185,7.805-0.523,11.661-1.073C376.719,366.523,377.029,365.846,377.343,365.155z M386.015,328.091
					c-0.822,2.03-1.685,4.078-2.597,6.144c2.513-1.097,4.969-2.323,7.358-3.667c0.468-1.449,0.93-2.919,1.385-4.405
					C390.112,326.806,388.063,327.449,386.015,328.091z M399.182,278.43c-0.093,0.723-0.19,1.451-0.294,2.188
					c1.003-0.435,2.007-0.87,3.01-1.304c0.057-0.577,0.117-1.154,0.17-1.733C401.107,277.869,400.145,278.152,399.182,278.43z
					 M375.639,350.105c-1.187,2.199-2.432,4.413-3.73,6.639c0.004,0,0.007-0.001,0.011-0.001c3.212-0.386,6.538-0.841,9.762-1.564
					c0.974-2.344,1.964-4.805,2.957-7.363C381.639,348.579,378.639,349.342,375.639,350.105z M397.486,289.157
					c1.006,0.431,2.001,0.899,2.986,1.389c0.186-1.202,0.361-2.409,0.527-3.619c-0.995-0.235-1.991-0.47-2.986-0.705
					C397.847,287.19,397.671,288.168,397.486,289.157z M391.357,313.348c-0.287,0.896-0.584,1.797-0.887,2.702
					c1.601-0.269,3.203-0.537,4.804-0.806c0.136-0.516,0.269-1.036,0.402-1.555C394.233,313.621,392.793,313.506,391.357,313.348z"
					/>
			</g>
		</g>
		<g style="clip-path:url(#SVGID_00000072992238852506341050000010821627234538304162_);">
			<g>
				<g>
					<g>
						<path style="fill:#94696C;" d="M-1.765,265.662l-0.99,0.453c0,0,34.945,47.802,16.5,125.855l10.569-3.517
							C24.313,388.454,31.708,313.028-1.765,265.662z"/>
					</g>
				</g>
				<path style="fill:#30C8DD;" d="M16.973,268.896c1.068,3.125,0.818,6.592-0.192,9.737c-0.417-3.057-2.3-5.88-4.963-7.438
					s-6.046-1.817-8.915-0.683c3.495,0.007,6.372,3.949,5.313,7.279c-1.242-2.655-3.756-4.68-6.616-5.327
					c-0.889,2.524-0.774,5.387,0.315,7.831c-1.933-1.663-2.997-4.284-2.77-6.823c-3.458,3.941-4.871,9.586-3.678,14.691
					c-2.704-2.012-4.339-5.383-4.248-8.752c0.092-3.369,1.909-6.646,4.718-8.508c-6.838,0.992-13.017,5.709-15.777,12.043
					c-2.76,6.334-2.007,14.072,1.922,19.755c-6.229-2.963-10.894-9.013-12.176-15.79c-1.282-6.777,0.851-14.113,5.567-19.147
					c4.716-5.033,11.898-7.639,18.744-6.8c-4.871-2.282-10.515-2.867-15.621-1.175c-5.106,1.692-11.429,7.886-13.974,12.625
					c-1.709-3.854,0.395-10.986,2.415-14.687c2.02-3.701,5.823-6.373,9.989-7.02c5.411-0.84,10.313,1.262,16.036,5.508
					c-2.366-6.323-0.234-14.231,5.115-18.35c-3.312,6.216-3.875,13.835-1.511,20.47c-1.288-5.113,0.569-11.068,4.21-14.882
					c3.641-3.814,9.292-5.588,14.459-4.539c5.167,1.049,9.68,4.887,11.544,9.819c-5.021-0.955-10.306-1.306-15.167,0.273
					c-4.861,1.578-9.229,5.396-10.331,10.386c3.734-3.178,8.112-5.704,12.9-6.759c4.789-1.055,10.009-0.546,14.238,1.936
					c4.229,2.481,7.31,7.051,7.475,11.951c0.169,5.002-2.519,9.602-5.147,13.861c0.836-1.355-1.219-6.139-1.767-7.473
					c-1.066-2.595-2.569-5.012-4.428-7.114c-3.271-3.7-7.538-7.721-12.849-7.257c-3.149,0.275-6.138,2.032-7.909,4.651
					c1.135-1.677,6.23-1.074,7.737-0.453C14.159,263.778,16.104,266.354,16.973,268.896z M17.484,267.023
					c0.635-1.959-0.013-4.269-1.573-5.613c-1.56-1.344-3.941-1.641-5.784-0.723C13.598,260.894,16.764,263.621,17.484,267.023z
					 M-8.781,236.32c-1.833,2.022-2.982,4.654-3.219,7.373c-0.237,2.719,0.441,5.51,1.897,7.818
					C-10.357,246.419-9.911,241.292-8.781,236.32z M-8.395,272.948c-2.207,1.247-4.269,2.921-5.416,5.181
					c-1.147,2.261-1.214,5.185,0.314,7.208C-13.324,280.781-11.481,276.305-8.395,272.948z"/>
				<path style="fill:#7E5B5E;" d="M11.569,290.666c-0.506,0.602-1.016,1.201-1.527,1.799c-0.281-0.798-0.563-1.58-0.847-2.344
					c0.538-0.44,1.078-0.879,1.62-1.315C11.071,289.425,11.322,290.045,11.569,290.666z M8.824,284.235
					c-0.113-0.247-0.231-0.493-0.346-0.74c-0.489,0.361-0.985,0.713-1.488,1.055c0.117,0.28,0.235,0.555,0.353,0.841
					C7.832,285.003,8.328,284.618,8.824,284.235z M17.137,320.974c1.098,0.103,2.195,0.206,3.293,0.309
					c-0.1-0.505-0.201-1.009-0.305-1.515c-1.065-0.031-2.129-0.061-3.193-0.092C17.002,320.106,17.07,320.538,17.137,320.974z
					 M25.006,370.94c-2.682,1.47-5.364,2.94-8.045,4.41c-0.109,0.719-0.216,1.438-0.334,2.163c2.867-1.46,5.667-3.028,8.368-4.742
					C25.001,372.175,25.004,371.563,25.006,370.94z M18.979,340.259c0.07,1.798,0.116,3.622,0.131,5.478
					c1.511-1.67,2.936-3.418,4.271-5.231c-0.139-1.243-0.29-2.5-0.451-3.766C21.613,337.913,20.296,339.086,18.979,340.259z
					 M12.063,298.626c0.174,0.573,0.347,1.151,0.519,1.738c0.604-0.665,1.209-1.329,1.813-1.993
					c-0.152-0.452-0.302-0.904-0.458-1.355C13.316,297.556,12.691,298.093,12.063,298.626z M18.646,360.246
					c-0.146,2.048-0.33,4.126-0.55,6.231c0.003-0.001,0.005-0.003,0.007-0.004c2.275-1.374,4.611-2.839,6.781-4.468
					c-0.062-2.084-0.152-4.261-0.273-6.512C22.624,357.077,20.635,358.661,18.646,360.246z M14.417,307.231
					c0.899-0.017,1.802-0.003,2.705,0.031c-0.267-0.963-0.544-1.926-0.828-2.888c-0.825,0.16-1.649,0.321-2.474,0.481
					C14.023,305.637,14.222,306.429,14.417,307.231z M17.999,327.415c0.088,0.768,0.17,1.543,0.248,2.323
					c1.108-0.742,2.217-1.484,3.325-2.226c-0.073-0.432-0.149-0.866-0.224-1.3C20.245,326.648,19.128,327.048,17.999,327.415z"/>
			</g>
			<g>
				<g>
					<g>
						<path style="fill:#94696C;" d="M31.619,137.804l2.127,0.012c0,0-23.83,113.214,71.736,237.407l-21.65,2.229
							C83.833,377.452,10.06,249.059,31.619,137.804z"/>
					</g>
				</g>
				<path style="fill:#30C8DD;" d="M5.403,143.358c2.183-2.317,10.774-7.485,14.143-5.409c-5.259-3.24-11.993-3.968-17.823-1.928
					c-9.831,3.441-14.2,14.031-17.053,23.249c-1.62,5.237-2.355,10.749-2.17,16.228c0.096,2.815,0.28,12.987,2.858,14.729
					c-8.103-5.474-16.587-11.507-20.304-20.551c-3.642-8.861-1.827-19.474,3.711-27.291c5.538-7.818,14.428-12.919,23.804-14.888
					c9.376-1.969,19.202-0.987,28.406,1.673c-5.972-8.004-16.818-11.293-26.744-10.198c-9.926,1.095-19.058,5.965-27.233,11.701
					c-0.641-10.282,4.312-20.743,12.672-26.763s19.851-7.401,29.4-3.534c9.548,3.868,17.641,12.982,19.455,23.123
					c-1.12-13.716-8.244-26.834-19.137-35.243c12.837,3.038,22.987,15.409,23.854,28.572c6.781-12.16,13.822-19.843,24.134-22.694
					c7.939-2.195,16.86-0.491,23.431,4.477c6.57,4.968,16.05,15.98,16.102,24.217c-8.34-6.396-24.578-12.348-35.032-11.258
					c-10.454,1.089-20.035,6.665-26.878,14.643c11.52-6.995,26.404-8.125,38.848-2.95c12.444,5.175,22.137,16.527,25.299,29.628
					c3.162,13.101-0.286,27.624-8.999,37.906c2.431-13.279-2.445-27.665-12.45-36.729c-10.005-9.064-24.801-12.5-37.776-8.773
					c6.499,1.059,12.368,5.435,15.239,11.361c2.871,5.926,2.666,13.244-0.533,19.001c-1.978-10.051-9.029-18.969-18.354-23.21
					c2.445,4.34,2.656,9.864,0.55,14.378c-0.025-5.229-2.12-10.42-5.732-14.201c-4.573,3.449-7.425,9.075-7.503,14.803
					c-4.562-5.081-2.604-14.413,3.615-17.234c-6.021,0.285-11.839,3.466-15.33,8.38s-4.577,11.455-2.864,17.234
					c-4.325-4.789-7.556-10.763-8.165-17.187C0.349,153.394,1.743,147.243,5.403,143.358z M6.441,138.497
					c-4.02-0.154-8.021,2.289-9.72,5.936c-1.699,3.647-0.996,8.282,1.708,11.261C-3.022,149.056,0.426,141.656,6.441,138.497z
					 M35.099,105.902c0.739-5.281-0.297-10.796-2.903-15.448c-2.606-4.653-6.767-8.417-11.657-10.545
					C26.546,87.855,31.461,96.628,35.099,105.902z M68.321,163.42c1.096-4.83-1.372-9.986-5.231-13.09
					c-3.86-3.105-8.875-4.43-13.808-4.877C57.475,148.953,64.352,155.443,68.321,163.42z"/>
				<path style="fill:#7E5B5E;" d="M27.81,189.133c1.315,0.341,2.628,0.689,3.941,1.04c0.108,1.588,0.234,3.208,0.374,4.855
					c-1.39-0.655-2.78-1.312-4.165-1.978C27.902,191.745,27.85,190.44,27.81,189.133z M31.249,180.259
					c-0.019-0.603-0.032-1.188-0.048-1.78c-1.17-0.204-2.336-0.434-3.498-0.684c-0.006,0.532-0.019,1.064-0.022,1.595
					C28.874,179.674,30.065,179.961,31.249,180.259z M41.717,249.026c-1.871,0.91-3.742,1.82-5.613,2.729
					c0.221,0.985,0.447,1.964,0.674,2.943c1.872-1.065,3.745-2.131,5.617-3.196C42.165,250.673,41.939,249.848,41.717,249.026z
					 M70.017,350.067c6.189,0.883,12.436,1.426,18.715,1.723c-0.793-1.197-1.561-2.391-2.333-3.584
					c-5.957-0.463-11.915-0.926-17.872-1.39C69.031,347.923,69.529,349.011,70.017,350.067z M44.744,284.236
					c0.731,2.385,1.471,4.744,2.223,7.07c3.835,2.157,7.776,4.125,11.809,5.885c-1.464-3.316-2.849-6.603-4.168-9.861
					C51.321,286.298,48.033,285.267,44.744,284.236z M28.845,206.262c0.084,0.928,0.18,1.854,0.272,2.781
					c1.611,0.698,3.221,1.396,4.831,2.094c-0.166-1.182-0.323-2.352-0.472-3.512C31.93,207.178,30.386,206.725,28.845,206.262z
					 M56.816,318.986c1.594,4.107,3.183,8.056,4.747,11.818c5.174,1.159,10.513,1.89,15.668,2.51
					c0.006,0.001,0.011,0.001,0.017,0.002c-2.084-3.573-4.081-7.126-5.986-10.656C66.446,321.435,61.632,320.211,56.816,318.986z
					 M35.353,220.131c-1.597,0.377-3.195,0.754-4.793,1.131c0.267,1.942,0.547,3.879,0.846,5.808
					c1.58-0.786,3.178-1.536,4.792-2.229C35.901,223.255,35.619,221.685,35.353,220.131z M39.103,264.214
					c0.214,0.834,0.427,1.668,0.646,2.496c2.57,0.431,5.14,0.862,7.71,1.293c-0.488-1.453-0.964-2.9-1.424-4.337
					C43.73,263.92,41.419,264.106,39.103,264.214z"/>
			</g>
			<g>
				<g>
					<g>
						<path style="fill:#94696C;" d="M99.662,234.927l1.325,0.007c0,0-14.847,70.54,44.696,147.921l-13.489,1.389
							C132.194,384.244,86.229,304.246,99.662,234.927z"/>
					</g>
				</g>
				<path style="fill:#30C8DD;" d="M83.327,238.387c1.36-1.444,6.713-4.663,8.812-3.37c-3.277-2.019-7.472-2.472-11.105-1.201
					c-6.126,2.144-8.848,8.742-10.625,14.486c-1.01,3.263-1.467,6.698-1.352,10.111c0.059,1.754,0.174,8.092,1.781,9.177
					c-5.049-3.41-10.334-7.17-12.651-12.805c-2.27-5.521-1.139-12.134,2.312-17.005c3.451-4.871,8.989-8.049,14.831-9.276
					c5.842-1.227,11.965-0.615,17.699,1.042c-3.721-4.987-10.479-7.036-16.664-6.354c-6.185,0.682-11.874,3.717-16.968,7.29
					c-0.399-6.406,2.687-12.924,7.896-16.675c5.209-3.751,12.369-4.612,18.318-2.202c5.949,2.41,10.992,8.089,12.122,14.407
					c-0.698-8.546-5.136-16.719-11.924-21.959c7.998,1.893,14.323,9.601,14.862,17.802c4.225-7.576,8.612-12.363,15.037-14.14
					c4.947-1.368,10.505-0.306,14.599,2.79c4.094,3.095,10,9.956,10.033,15.089c-5.197-3.985-15.314-7.693-21.827-7.015
					c-6.513,0.679-12.483,4.153-16.747,9.124c7.178-4.358,16.451-5.063,24.205-1.838s13.793,10.297,15.763,18.46
					c1.97,8.163-0.178,17.212-5.607,23.618c1.515-8.274-1.523-17.237-7.757-22.884c-6.234-5.647-15.452-7.788-23.537-5.466
					c4.049,0.66,7.706,3.386,9.495,7.079c1.789,3.693,1.661,8.252-0.332,11.839c-1.232-6.263-5.626-11.819-11.436-14.461
					c1.523,2.704,1.655,6.146,0.343,8.958c-0.016-3.258-1.321-6.492-3.571-8.848c-2.849,2.149-4.626,5.655-4.675,9.223
					c-2.842-3.166-1.623-8.981,2.252-10.738c-3.751,0.178-7.377,2.159-9.551,5.221c-2.175,3.062-2.852,7.137-1.784,10.738
					c-2.695-2.984-4.708-6.706-5.087-10.709C80.178,244.64,81.047,240.808,83.327,238.387z M83.974,235.359
					c-2.505-0.096-4.998,1.426-6.057,3.698c-1.059,2.272-0.621,5.16,1.064,7.016C78.077,241.938,80.226,237.327,83.974,235.359z
					 M101.83,215.049c0.461-3.291-0.185-6.727-1.809-9.625c-1.624-2.899-4.216-5.244-7.263-6.57
					C96.501,203.805,99.563,209.271,101.83,215.049z M122.53,250.887c0.683-3.01-0.855-6.222-3.26-8.156
					c-2.405-1.934-5.53-2.76-8.604-3.038C115.771,241.873,120.057,245.917,122.53,250.887z"/>
				<path style="fill:#7E5B5E;" d="M97.288,266.908c0.819,0.212,1.637,0.429,2.455,0.648c0.067,0.989,0.146,1.999,0.233,3.025
					c-0.866-0.408-1.732-0.817-2.595-1.233C97.345,268.536,97.313,267.722,97.288,266.908z M99.431,261.379
					c-0.012-0.376-0.02-0.74-0.03-1.109c-0.729-0.127-1.456-0.27-2.179-0.426c-0.004,0.331-0.012,0.663-0.014,0.994
					C97.951,261.015,98.693,261.193,99.431,261.379z M105.953,304.225c-1.166,0.567-2.332,1.134-3.497,1.701
					c0.137,0.613,0.278,1.224,0.42,1.834c1.167-0.664,2.333-1.328,3.5-1.992C106.232,305.252,106.092,304.738,105.953,304.225z
					 M123.586,367.181c3.856,0.55,7.748,0.888,11.661,1.073c-0.494-0.746-0.973-1.49-1.453-2.233
					c-3.712-0.289-7.424-0.577-11.136-0.866C122.971,365.846,123.282,366.523,123.586,367.181z M107.84,326.164
					c0.455,1.486,0.917,2.956,1.385,4.405c2.389,1.344,4.845,2.57,7.358,3.667c-0.912-2.066-1.775-4.114-2.597-6.144
					C111.937,327.449,109.888,326.806,107.84,326.164z M97.933,277.581c0.052,0.578,0.112,1.155,0.17,1.733
					c1.004,0.435,2.007,0.87,3.01,1.304c-0.104-0.737-0.201-1.465-0.294-2.188C99.855,278.152,98.893,277.869,97.933,277.581z
					 M115.361,347.816c0.993,2.559,1.983,5.019,2.957,7.363c3.224,0.722,6.55,1.177,9.762,1.564c0.004,0,0.007,0.001,0.011,0.001
					c-1.298-2.226-2.543-4.44-3.73-6.639C121.361,349.342,118.361,348.579,115.361,347.816z M101.988,286.222
					c-0.995,0.235-1.991,0.47-2.986,0.705c0.166,1.21,0.341,2.417,0.527,3.619c0.985-0.49,1.98-0.957,2.986-1.389
					C102.329,288.168,102.154,287.19,101.988,286.222z M104.325,313.689c0.133,0.519,0.266,1.039,0.402,1.555
					c1.601,0.269,3.203,0.537,4.804,0.806c-0.304-0.905-0.601-1.806-0.887-2.702C107.208,313.506,105.768,313.621,104.325,313.689z"
					/>
			</g>
		</g>
		<g style="clip-path:url(#SVGID_00000072992238852506341050000010821627234538304162_);">
			<g>
				<path style="fill:#FDBD6A;" d="M-475.536,447.042c0,0,628.87-184.925,1432.842,0
					C957.305,447.042,343.107,611.152-475.536,447.042z"/>
				<path style="fill:#FDE176;" d="M-362.045,427.566c0,0,536.604-152.179,1297.852,17.056
					C935.807,444.622,413.095,577.752-362.045,427.566z"/>
				<path style="opacity:0.5;fill:#FDE97F;" d="M-57.071,383.925c0,0,418.669-62.368,1006.922,50.156
					C949.851,434.081,522.214,452.649-57.071,383.925z"/>
			</g>
		</g>
		
			<rect y="0" style="clip-path:url(#SVGID_00000072992238852506341050000010821627234538304162_);fill:none;" width="500" height="500"/>
	</g>
</g>
<g id="DESIGNED_BY_FREEPIK">
	<g id="XMLID_107_">
		<path id="XMLID_182_" style="fill:#94696C;" d="M181.096,469.127c-0.246,0-0.434,0.085-0.567,0.255
			c-0.133,0.17-0.199,0.421-0.199,0.754v2.391c-0.305-0.331-0.617-0.578-0.937-0.739c-0.321-0.159-0.715-0.24-1.181-0.24
			c-0.807,0-1.458,0.283-1.952,0.848c-0.494,0.566-0.742,1.356-0.742,2.369c0,0.478,0.063,0.923,0.187,1.335
			c0.125,0.412,0.307,0.77,0.549,1.074c0.241,0.305,0.527,0.539,0.857,0.704c0.33,0.164,0.689,0.245,1.077,0.245
			c0.293,0,0.563-0.039,0.809-0.122c0.248-0.081,0.477-0.199,0.689-0.356c0.212-0.155,0.426-0.359,0.644-0.608v0.161
			c0,0.297,0.072,0.525,0.216,0.686c0.145,0.16,0.328,0.239,0.549,0.239c0.226,0,0.41-0.077,0.552-0.231
			c0.143-0.155,0.214-0.386,0.214-0.694v-7.146c0-0.305-0.067-0.534-0.199-0.691C181.53,469.205,181.342,469.127,181.096,469.127z
			 M180.031,475.967c-0.14,0.306-0.328,0.534-0.563,0.681c-0.236,0.149-0.496,0.223-0.781,0.223c-0.281,0-0.539-0.079-0.777-0.236
			c-0.237-0.156-0.424-0.388-0.561-0.697c-0.136-0.309-0.204-0.682-0.204-1.121c0-0.416,0.064-0.78,0.193-1.095
			c0.128-0.315,0.309-0.556,0.543-0.724c0.233-0.168,0.498-0.252,0.795-0.252c0.285,0,0.547,0.082,0.786,0.245
			c0.239,0.165,0.429,0.402,0.569,0.712c0.141,0.311,0.21,0.682,0.21,1.114C180.242,475.276,180.172,475.66,180.031,475.967z"/>
		<path id="XMLID_179_" style="fill:#94696C;" d="M188.46,475.047c0.233-0.121,0.35-0.385,0.35-0.793
			c0-0.438-0.113-0.87-0.339-1.294c-0.225-0.423-0.564-0.768-1.018-1.035c-0.453-0.268-0.996-0.4-1.628-0.4
			c-0.487,0-0.93,0.077-1.329,0.234c-0.4,0.157-0.737,0.381-1.009,0.674c-0.273,0.293-0.48,0.644-0.623,1.054
			c-0.143,0.409-0.214,0.853-0.214,1.332c0,1.016,0.289,1.822,0.866,2.415c0.577,0.593,1.387,0.89,2.427,0.89
			c0.455,0,0.858-0.059,1.207-0.178c0.351-0.118,0.641-0.267,0.873-0.448c0.231-0.179,0.404-0.367,0.519-0.564
			c0.115-0.196,0.172-0.367,0.172-0.513c0-0.167-0.052-0.294-0.155-0.386c-0.103-0.091-0.237-0.137-0.403-0.137
			c-0.154,0-0.273,0.036-0.356,0.107c-0.203,0.19-0.366,0.34-0.492,0.452c-0.126,0.111-0.265,0.215-0.415,0.312
			c-0.15,0.098-0.305,0.168-0.466,0.214c-0.16,0.046-0.337,0.068-0.531,0.068c-0.289,0-0.553-0.071-0.792-0.214
			c-0.239-0.142-0.432-0.354-0.576-0.635c-0.145-0.281-0.219-0.605-0.222-0.973h3.168
			C187.898,475.228,188.227,475.167,188.46,475.047z M184.306,474.308c0.056-0.546,0.212-0.959,0.472-1.238
			c0.259-0.279,0.59-0.418,0.994-0.418c0.424,0,0.764,0.137,1.024,0.413c0.259,0.275,0.409,0.689,0.448,1.243H184.306z"/>
		<path id="XMLID_178_" style="fill:#94696C;" d="M193.886,474.61c-0.319-0.17-0.729-0.316-1.231-0.439
			c-0.425-0.103-0.756-0.19-0.997-0.26c-0.242-0.071-0.434-0.161-0.577-0.27c-0.142-0.109-0.213-0.248-0.213-0.418
			c0-0.186,0.096-0.341,0.291-0.465c0.194-0.126,0.437-0.187,0.73-0.187c0.285,0,0.511,0.047,0.677,0.142
			c0.166,0.095,0.31,0.222,0.433,0.38c0.151,0.19,0.284,0.332,0.401,0.426c0.116,0.096,0.258,0.143,0.424,0.143
			c0.231,0,0.408-0.06,0.532-0.178c0.124-0.119,0.186-0.271,0.186-0.457c0-0.171-0.058-0.345-0.175-0.523
			c-0.116-0.178-0.286-0.34-0.51-0.486c-0.223-0.147-0.502-0.264-0.837-0.35c-0.333-0.088-0.71-0.131-1.13-0.131
			c-0.535,0-0.99,0.086-1.367,0.259c-0.378,0.172-0.665,0.403-0.859,0.691c-0.194,0.289-0.291,0.596-0.291,0.92
			c0,0.364,0.105,0.671,0.315,0.92c0.21,0.249,0.489,0.45,0.84,0.602c0.35,0.153,0.804,0.298,1.362,0.436
			c0.494,0.119,0.849,0.244,1.065,0.375c0.216,0.131,0.323,0.337,0.323,0.622c0,0.186-0.104,0.351-0.311,0.496
			c-0.208,0.144-0.474,0.217-0.798,0.217c-0.4,0-0.715-0.072-0.947-0.214c-0.231-0.143-0.431-0.358-0.597-0.647
			c-0.082-0.149-0.17-0.267-0.261-0.35c-0.091-0.083-0.221-0.125-0.391-0.125c-0.194,0-0.355,0.064-0.481,0.19
			c-0.128,0.126-0.19,0.278-0.19,0.456c0,0.27,0.099,0.537,0.296,0.805c0.198,0.266,0.505,0.489,0.92,0.666
			c0.415,0.178,0.914,0.267,1.495,0.267c0.61,0,1.127-0.082,1.552-0.245c0.425-0.165,0.747-0.406,0.964-0.725
			c0.218-0.319,0.326-0.702,0.326-1.149c0-0.297-0.082-0.56-0.246-0.791C194.446,474.981,194.204,474.779,193.886,474.61z"/>
		<path id="XMLID_177_" style="fill:#94696C;" d="M196.512,469.198c-0.217,0-0.409,0.074-0.573,0.223
			c-0.164,0.149-0.246,0.337-0.246,0.567c0,0.254,0.08,0.45,0.24,0.588c0.16,0.138,0.353,0.208,0.578,0.208
			c0.217,0,0.405-0.071,0.563-0.211c0.158-0.14,0.238-0.335,0.238-0.584c0-0.258-0.081-0.453-0.243-0.588
			C196.907,469.265,196.722,469.198,196.512,469.198z"/>
		<path id="XMLID_176_" style="fill:#94696C;" d="M196.493,471.536c-0.237,0-0.43,0.081-0.578,0.243
			c-0.149,0.162-0.222,0.404-0.222,0.724v4.635c0,0.316,0.073,0.56,0.222,0.73c0.148,0.171,0.341,0.255,0.578,0.255
			c0.238,0,0.433-0.083,0.588-0.249c0.154-0.166,0.231-0.411,0.231-0.736v-4.682c0-0.289-0.077-0.514-0.231-0.677
			C196.927,471.617,196.732,471.536,196.493,471.536z"/>
		<path id="XMLID_173_" style="fill:#94696C;" d="M203.632,471.536c-0.217,0-0.395,0.077-0.535,0.231
			c-0.138,0.155-0.207,0.372-0.207,0.653v0.22c-0.289-0.376-0.602-0.652-0.937-0.829c-0.337-0.175-0.735-0.263-1.193-0.263
			c-0.384,0-0.736,0.068-1.056,0.204c-0.32,0.137-0.603,0.339-0.849,0.608c-0.245,0.269-0.433,0.599-0.566,0.992
			c-0.133,0.391-0.199,0.831-0.199,1.317c0,0.653,0.109,1.228,0.326,1.727c0.217,0.499,0.529,0.886,0.934,1.163
			c0.406,0.277,0.88,0.416,1.422,0.416c0.45,0,0.839-0.092,1.165-0.273c0.327-0.182,0.614-0.447,0.864-0.796
			c-0.008,0.531-0.02,0.916-0.035,1.155c-0.016,0.24-0.07,0.465-0.164,0.674c-0.093,0.21-0.255,0.373-0.486,0.489
			c-0.231,0.117-0.557,0.176-0.977,0.176c-0.205,0-0.388-0.02-0.545-0.056c-0.159-0.038-0.294-0.095-0.406-0.172
			c-0.112-0.077-0.216-0.17-0.309-0.28c-0.093-0.109-0.183-0.217-0.27-0.323c-0.178-0.21-0.386-0.315-0.624-0.315
			c-0.189,0-0.352,0.062-0.486,0.188c-0.135,0.123-0.202,0.286-0.202,0.483c0,0.261,0.119,0.515,0.356,0.763
			c0.238,0.247,0.576,0.448,1.014,0.605c0.439,0.156,0.938,0.234,1.496,0.234c0.609,0,1.119-0.061,1.528-0.184
			c0.409-0.122,0.741-0.311,0.994-0.564c0.253-0.253,0.437-0.573,0.552-0.96c0.115-0.388,0.173-0.852,0.173-1.39v-4.705
			c0-0.384-0.051-0.678-0.155-0.882C204.152,471.638,203.945,471.536,203.632,471.536z M202.606,475.901
			c-0.151,0.29-0.345,0.508-0.586,0.653c-0.239,0.144-0.493,0.217-0.761,0.217c-0.455,0-0.826-0.168-1.113-0.505
			c-0.287-0.336-0.43-0.833-0.43-1.489c0-0.649,0.139-1.15,0.418-1.501c0.279-0.352,0.649-0.528,1.113-0.528
			c0.475,0,0.857,0.184,1.148,0.552c0.291,0.367,0.436,0.882,0.436,1.543C202.831,475.257,202.756,475.61,202.606,475.901z"/>
		<path id="XMLID_172_" style="fill:#94696C;" d="M210.983,472.603c-0.165-0.339-0.417-0.602-0.753-0.788
			c-0.337-0.186-0.718-0.279-1.146-0.279c-0.439,0-0.827,0.088-1.165,0.264c-0.339,0.176-0.65,0.452-0.935,0.828v-0.196
			c0-0.193-0.034-0.358-0.104-0.493c-0.07-0.134-0.162-0.234-0.276-0.302c-0.115-0.068-0.244-0.101-0.387-0.101
			c-0.233,0-0.417,0.076-0.552,0.228c-0.134,0.153-0.201,0.383-0.201,0.692v4.682c0,0.316,0.076,0.56,0.226,0.73
			c0.15,0.171,0.342,0.255,0.576,0.255c0.241,0,0.438-0.082,0.59-0.245c0.152-0.165,0.228-0.411,0.228-0.739v-2.03
			c0-0.661,0.04-1.111,0.119-1.353c0.11-0.3,0.284-0.537,0.522-0.71c0.237-0.172,0.5-0.258,0.788-0.258
			c0.444,0,0.74,0.142,0.888,0.425c0.148,0.283,0.223,0.691,0.223,1.225v2.701c0,0.316,0.075,0.56,0.226,0.73
			c0.15,0.171,0.345,0.255,0.587,0.255c0.238,0,0.431-0.083,0.578-0.249c0.149-0.166,0.223-0.411,0.223-0.736v-3.015
			c0-0.356-0.016-0.649-0.048-0.879C211.16,473.016,211.091,472.802,210.983,472.603z"/>
		<path id="XMLID_169_" style="fill:#94696C;" d="M217.826,475.047c0.234-0.121,0.35-0.385,0.35-0.793
			c0-0.438-0.113-0.87-0.338-1.294c-0.226-0.423-0.565-0.768-1.019-1.035c-0.453-0.268-0.995-0.4-1.628-0.4
			c-0.487,0-0.93,0.077-1.329,0.234c-0.4,0.157-0.736,0.381-1.009,0.674c-0.273,0.293-0.481,0.644-0.624,1.054
			c-0.142,0.409-0.214,0.853-0.214,1.332c0,1.016,0.289,1.822,0.867,2.415c0.578,0.593,1.387,0.89,2.427,0.89
			c0.455,0,0.858-0.059,1.208-0.178c0.35-0.118,0.64-0.267,0.871-0.448c0.232-0.179,0.405-0.367,0.52-0.564
			c0.115-0.196,0.172-0.367,0.172-0.513c0-0.167-0.051-0.294-0.154-0.386c-0.103-0.091-0.238-0.137-0.404-0.137
			c-0.154,0-0.273,0.036-0.356,0.107c-0.201,0.19-0.366,0.34-0.492,0.452c-0.128,0.111-0.266,0.215-0.415,0.312
			c-0.151,0.098-0.306,0.168-0.466,0.214c-0.161,0.046-0.338,0.068-0.532,0.068c-0.289,0-0.553-0.071-0.792-0.214
			c-0.239-0.142-0.431-0.354-0.575-0.635c-0.145-0.281-0.218-0.605-0.223-0.973h3.168
			C217.264,475.228,217.592,475.167,217.826,475.047z M213.672,474.308c0.056-0.546,0.212-0.959,0.471-1.238
			c0.259-0.279,0.591-0.418,0.995-0.418c0.424,0,0.764,0.137,1.024,0.413c0.259,0.275,0.409,0.689,0.448,1.243H213.672z"/>
		<path id="XMLID_166_" style="fill:#94696C;" d="M224.21,469.127c-0.245,0-0.434,0.085-0.567,0.255s-0.2,0.421-0.2,0.754v2.391
			c-0.304-0.331-0.616-0.578-0.937-0.739c-0.32-0.159-0.714-0.24-1.181-0.24c-0.807,0-1.458,0.283-1.952,0.848
			c-0.495,0.566-0.741,1.356-0.741,2.369c0,0.478,0.062,0.923,0.187,1.335c0.124,0.412,0.307,0.77,0.549,1.074
			c0.241,0.305,0.527,0.539,0.857,0.704c0.33,0.164,0.689,0.245,1.077,0.245c0.293,0,0.563-0.039,0.81-0.122
			c0.247-0.081,0.476-0.199,0.688-0.356c0.211-0.155,0.426-0.359,0.643-0.608v0.161c0,0.297,0.073,0.525,0.217,0.686
			c0.145,0.16,0.328,0.239,0.549,0.239c0.226,0,0.41-0.077,0.552-0.231c0.143-0.155,0.214-0.386,0.214-0.694v-7.146
			c0-0.305-0.066-0.534-0.199-0.691C224.644,469.205,224.456,469.127,224.21,469.127z M223.145,475.967
			c-0.14,0.306-0.328,0.534-0.564,0.681c-0.236,0.149-0.496,0.223-0.781,0.223c-0.281,0-0.539-0.079-0.776-0.236
			c-0.238-0.156-0.425-0.388-0.561-0.697c-0.137-0.309-0.205-0.682-0.205-1.121c0-0.416,0.064-0.78,0.193-1.095
			c0.129-0.315,0.31-0.556,0.543-0.724c0.233-0.168,0.499-0.252,0.795-0.252c0.285,0,0.547,0.082,0.786,0.245
			c0.239,0.165,0.43,0.402,0.57,0.712c0.14,0.311,0.211,0.682,0.211,1.114C223.355,475.276,223.285,475.66,223.145,475.967z"/>
		<path id="XMLID_163_" style="fill:#94696C;" d="M234.532,473.04c-0.224-0.484-0.538-0.854-0.943-1.111
			c-0.406-0.254-0.877-0.382-1.416-0.382c-0.467,0-0.859,0.084-1.175,0.252c-0.317,0.168-0.627,0.411-0.932,0.727v-2.474
			c0-0.297-0.068-0.525-0.202-0.686c-0.134-0.16-0.326-0.24-0.575-0.24c-0.237,0-0.423,0.084-0.555,0.252
			c-0.132,0.168-0.198,0.416-0.198,0.744v7.075c0,0.304,0.068,0.534,0.205,0.692c0.136,0.156,0.319,0.233,0.549,0.233
			c0.226,0,0.412-0.077,0.558-0.233c0.146-0.158,0.22-0.388,0.22-0.692v-0.161c0.177,0.206,0.322,0.361,0.43,0.464
			c0.109,0.102,0.241,0.203,0.395,0.299c0.154,0.098,0.341,0.176,0.561,0.234c0.22,0.06,0.454,0.089,0.703,0.089
			c0.407,0,0.78-0.082,1.118-0.245c0.338-0.165,0.626-0.398,0.864-0.698c0.237-0.301,0.418-0.656,0.543-1.065
			c0.125-0.41,0.187-0.859,0.187-1.35C234.867,474.1,234.755,473.524,234.532,473.04z M232.799,476.34
			c-0.295,0.354-0.646,0.531-1.053,0.531c-0.479,0-0.866-0.174-1.16-0.52c-0.295-0.346-0.442-0.841-0.442-1.486
			c0-0.439,0.069-0.819,0.208-1.137c0.138-0.319,0.328-0.562,0.57-0.73c0.24-0.168,0.516-0.252,0.825-0.252
			c0.3,0,0.564,0.084,0.789,0.252c0.225,0.168,0.399,0.406,0.522,0.715c0.123,0.308,0.184,0.677,0.184,1.104
			C233.241,475.478,233.093,475.986,232.799,476.34z"/>
		<path id="XMLID_162_" style="fill:#94696C;" d="M240.531,471.634c-0.112-0.066-0.229-0.098-0.353-0.098
			c-0.171,0-0.303,0.03-0.395,0.09c-0.093,0.059-0.181,0.173-0.264,0.344c-0.083,0.17-0.176,0.406-0.279,0.706l-1.3,3.709
			l-1.371-3.988c-0.091-0.277-0.195-0.489-0.314-0.638c-0.119-0.148-0.295-0.223-0.528-0.223c-0.135,0-0.264,0.035-0.389,0.107
			c-0.124,0.071-0.222,0.166-0.294,0.285c-0.071,0.118-0.107,0.246-0.107,0.385c0,0.131,0.062,0.341,0.184,0.629l1.994,5.021
			l-0.148,0.362c-0.111,0.265-0.209,0.466-0.294,0.602c-0.085,0.137-0.181,0.233-0.287,0.288c-0.107,0.056-0.254,0.083-0.44,0.083
			c-0.074,0-0.164-0.012-0.266-0.035c-0.083-0.024-0.168-0.037-0.256-0.037c-0.221,0-0.388,0.051-0.5,0.152
			c-0.113,0.1-0.17,0.244-0.17,0.43c0,0.273,0.118,0.461,0.356,0.565c0.237,0.103,0.593,0.154,1.068,0.154
			c0.487,0,0.873-0.074,1.161-0.223c0.287-0.148,0.517-0.361,0.691-0.638c0.174-0.277,0.353-0.658,0.535-1.145l2.113-5.531
			c0.051-0.141,0.095-0.283,0.13-0.421c0.037-0.139,0.061-0.246,0.078-0.321c0-0.123-0.032-0.239-0.093-0.35
			C240.731,471.787,240.643,471.699,240.531,471.634z"/>
		<path id="XMLID_161_" style="fill:#94696C;" d="M262.565,470.55c0.087-0.171,0.273-0.259,0.565-0.259
			c0.107,0,0.242,0.014,0.389,0.035c0.156,0.026,0.267,0.037,0.33,0.037c0.134,0,0.253-0.054,0.349-0.16
			c0.1-0.107,0.15-0.236,0.15-0.384c0-0.467-0.471-0.696-1.421-0.696c-0.533,0-0.953,0.068-1.259,0.204
			c-0.307,0.137-0.527,0.354-0.654,0.653c-0.129,0.3-0.192,0.702-0.192,1.21v0.486h-0.387c-0.543,0-0.814,0.192-0.814,0.582
			c0,0.174,0.066,0.317,0.196,0.424c0.132,0.111,0.315,0.163,0.558,0.163h0.447v4.293c0,0.32,0.074,0.563,0.227,0.73
			c0.155,0.171,0.344,0.254,0.574,0.254c0.243,0,0.438-0.083,0.589-0.254c0.155-0.167,0.231-0.41,0.231-0.73v-4.293h0.395
			c0.29,0,0.516-0.035,0.68-0.107c0.166-0.072,0.245-0.241,0.245-0.503c0-0.374-0.306-0.56-0.925-0.56h-0.395v-0.386
			C262.444,470.968,262.486,470.722,262.565,470.55z"/>
		<path id="XMLID_135_" style="fill:#94696C;" d="M268.569,472.466c0-0.28-0.16-0.507-0.482-0.678
			c-0.321-0.171-0.648-0.255-0.991-0.255c-0.342,0-0.61,0.084-0.818,0.255c-0.203,0.171-0.4,0.421-0.593,0.755
			c-0.013-0.334-0.079-0.584-0.198-0.755c-0.12-0.171-0.313-0.255-0.583-0.255c-0.526,0-0.788,0.364-0.788,1.093v4.513
			c0,0.323,0.078,0.569,0.226,0.733c0.149,0.168,0.341,0.25,0.578,0.25c0.237,0,0.432-0.081,0.586-0.246
			c0.151-0.162,0.234-0.41,0.234-0.737v-1.355c0-0.486,0.014-0.899,0.044-1.238c0.034-0.337,0.09-0.631,0.171-0.877
			c0.083-0.243,0.201-0.426,0.353-0.554c0.149-0.122,0.344-0.186,0.582-0.186c0.171,0,0.373,0.037,0.602,0.108
			c0.226,0.073,0.37,0.112,0.432,0.112c0.157,0,0.304-0.064,0.442-0.195C268.5,472.828,268.569,472.662,268.569,472.466z"/>
		<path id="XMLID_132_" style="fill:#94696C;" d="M274.173,475.045c0.233-0.122,0.35-0.386,0.35-0.791
			c0-0.441-0.112-0.871-0.338-1.296c-0.222-0.423-0.566-0.769-1.018-1.034c-0.454-0.27-0.997-0.403-1.629-0.403
			c-0.488,0-0.931,0.078-1.329,0.234c-0.401,0.156-0.736,0.38-1.008,0.674c-0.276,0.295-0.483,0.643-0.624,1.054
			c-0.144,0.41-0.217,0.855-0.217,1.334c0,1.016,0.292,1.822,0.869,2.417c0.577,0.593,1.385,0.888,2.428,0.888
			c0.454,0,0.858-0.06,1.207-0.178c0.349-0.117,0.639-0.268,0.874-0.447c0.233-0.181,0.405-0.367,0.522-0.566
			c0.111-0.195,0.167-0.365,0.167-0.512c0-0.167-0.049-0.293-0.152-0.386c-0.105-0.092-0.238-0.139-0.405-0.139
			c-0.152,0-0.271,0.038-0.355,0.109c-0.203,0.189-0.367,0.34-0.494,0.449c-0.127,0.113-0.264,0.217-0.415,0.312
			c-0.15,0.097-0.306,0.17-0.465,0.213c-0.161,0.049-0.337,0.07-0.531,0.07c-0.29,0-0.553-0.071-0.793-0.213
			c-0.24-0.144-0.431-0.356-0.577-0.635c-0.144-0.28-0.216-0.607-0.222-0.974h3.17C273.612,475.226,273.94,475.165,274.173,475.045z
			 M270.018,474.305c0.055-0.546,0.214-0.957,0.472-1.236c0.259-0.281,0.591-0.418,0.995-0.418c0.426,0,0.764,0.136,1.025,0.413
			c0.26,0.273,0.406,0.688,0.445,1.241H270.018z"/>
		<path id="XMLID_129_" style="fill:#94696C;" d="M280.913,475.045c0.231-0.122,0.35-0.386,0.35-0.791
			c0-0.441-0.116-0.871-0.34-1.296c-0.222-0.423-0.563-0.769-1.013-1.034c-0.459-0.27-1.002-0.403-1.633-0.403
			c-0.486,0-0.931,0.078-1.33,0.234c-0.4,0.156-0.736,0.38-1.008,0.674c-0.273,0.295-0.481,0.643-0.622,1.054
			c-0.145,0.41-0.217,0.855-0.217,1.334c0,1.016,0.29,1.822,0.868,2.417c0.58,0.593,1.386,0.888,2.428,0.888
			c0.454,0,0.86-0.06,1.208-0.178c0.348-0.117,0.641-0.268,0.873-0.447c0.234-0.181,0.408-0.367,0.519-0.566
			c0.116-0.195,0.171-0.365,0.171-0.512c0-0.167-0.048-0.293-0.15-0.386c-0.105-0.092-0.239-0.139-0.406-0.139
			c-0.151,0-0.271,0.038-0.355,0.109c-0.203,0.189-0.368,0.34-0.493,0.449c-0.127,0.113-0.264,0.217-0.415,0.312
			c-0.152,0.097-0.306,0.17-0.469,0.213c-0.157,0.049-0.336,0.07-0.527,0.07c-0.292,0-0.555-0.071-0.794-0.213
			c-0.239-0.144-0.431-0.356-0.576-0.635c-0.143-0.28-0.217-0.607-0.221-0.974h3.169
			C280.35,475.226,280.678,475.165,280.913,475.045z M276.759,474.305c0.052-0.546,0.211-0.957,0.468-1.236
			c0.261-0.281,0.592-0.418,0.996-0.418c0.425,0,0.763,0.136,1.026,0.413c0.256,0.273,0.406,0.688,0.447,1.241H276.759z"/>
		<path id="XMLID_126_" style="fill:#94696C;" d="M286.922,471.93c-0.42-0.256-0.882-0.386-1.379-0.386
			c-0.415,0-0.789,0.089-1.113,0.267c-0.332,0.176-0.649,0.452-0.953,0.827v-0.194c0-0.297-0.071-0.519-0.217-0.678
			c-0.144-0.156-0.329-0.234-0.56-0.234c-0.233,0-0.419,0.078-0.553,0.228c-0.133,0.155-0.2,0.382-0.2,0.692v6.993
			c0,0.355,0.051,0.62,0.147,0.807c0.101,0.183,0.3,0.275,0.607,0.275c0.517,0,0.777-0.359,0.777-1.068v-2.432
			c0.287,0.358,0.587,0.633,0.901,0.815c0.314,0.187,0.704,0.28,1.165,0.28c0.386,0,0.741-0.076,1.08-0.227
			c0.333-0.153,0.622-0.372,0.868-0.653c0.245-0.284,0.441-0.633,0.581-1.05c0.139-0.419,0.21-0.878,0.21-1.375
			c0-0.677-0.123-1.261-0.366-1.758C287.671,472.564,287.341,472.189,286.922,471.93z M286.446,475.932
			c-0.137,0.312-0.32,0.546-0.552,0.704c-0.229,0.154-0.481,0.233-0.748,0.233c-0.454,0-0.829-0.178-1.133-0.536
			c-0.307-0.358-0.46-0.862-0.46-1.503c0-0.686,0.155-1.204,0.462-1.558c0.306-0.35,0.683-0.527,1.13-0.527
			c0.281,0,0.541,0.084,0.77,0.248c0.229,0.163,0.41,0.397,0.541,0.705c0.131,0.306,0.196,0.674,0.196,1.101
			C286.653,475.241,286.583,475.619,286.446,475.932z"/>
		<path id="XMLID_125_" style="fill:#94696C;" d="M289.895,471.533c-0.238,0-0.428,0.079-0.58,0.245
			c-0.146,0.162-0.222,0.403-0.222,0.721v4.641c0,0.314,0.076,0.556,0.222,0.729c0.151,0.171,0.342,0.254,0.58,0.254
			c0.238,0,0.432-0.082,0.588-0.25c0.154-0.165,0.231-0.41,0.231-0.732v-4.687c0-0.286-0.077-0.513-0.231-0.675
			C290.327,471.612,290.133,471.533,289.895,471.533z"/>
		<path id="XMLID_124_" style="fill:#94696C;" d="M289.913,469.193c-0.217,0-0.408,0.076-0.571,0.222
			c-0.166,0.15-0.248,0.339-0.248,0.569c0,0.253,0.079,0.446,0.242,0.585c0.159,0.138,0.35,0.209,0.577,0.209
			c0.22,0,0.408-0.071,0.566-0.21c0.156-0.14,0.236-0.335,0.236-0.585c0-0.257-0.082-0.455-0.244-0.591
			C290.309,469.26,290.125,469.193,289.913,469.193z"/>
		<path id="XMLID_123_" style="fill:#94696C;" d="M297.251,476.561l-1.661-2.613l0.86-0.789c0.438-0.395,0.659-0.714,0.659-0.951
			c0-0.192-0.068-0.355-0.2-0.483c-0.139-0.128-0.306-0.193-0.51-0.193c-0.168,0-0.312,0.043-0.431,0.13
			c-0.121,0.086-0.29,0.251-0.516,0.486l-1.822,1.914v-3.932c0-0.33-0.074-0.582-0.221-0.751c-0.148-0.171-0.344-0.257-0.593-0.257
			c-0.255,0-0.456,0.092-0.595,0.283c-0.136,0.189-0.207,0.463-0.207,0.821v6.912c0,0.323,0.073,0.569,0.215,0.733
			c0.142,0.168,0.339,0.25,0.588,0.25c0.212,0,0.405-0.083,0.566-0.254c0.165-0.167,0.248-0.406,0.248-0.717v-1.291l0.88-0.83
			l1.427,2.353c0.182,0.278,0.329,0.472,0.436,0.58c0.106,0.11,0.261,0.16,0.459,0.16c0.226,0,0.413-0.073,0.553-0.221
			c0.142-0.15,0.214-0.352,0.214-0.609c0-0.089-0.029-0.189-0.082-0.289C297.464,476.901,297.372,476.757,297.251,476.561z"/>
		<path id="XMLID_122_" style="fill:#94696C;" d="M299.443,476.335c-0.25,0-0.458,0.087-0.63,0.262
			c-0.17,0.173-0.256,0.381-0.256,0.622c0,0.287,0.09,0.51,0.268,0.665c0.178,0.16,0.388,0.238,0.633,0.238
			c0.237,0,0.444-0.078,0.624-0.24c0.174-0.157,0.264-0.379,0.264-0.663c0-0.243-0.089-0.454-0.264-0.626
			C299.903,476.422,299.692,476.335,299.443,476.335z"/>
		<path id="XMLID_121_" style="fill:#94696C;" d="M306.828,475.409c-0.167,0-0.309,0.054-0.422,0.156
			c-0.114,0.104-0.22,0.245-0.319,0.427c-0.177,0.309-0.381,0.538-0.616,0.689c-0.231,0.15-0.509,0.225-0.835,0.225
			c-0.239,0-0.462-0.045-0.665-0.141c-0.201-0.093-0.372-0.229-0.516-0.409c-0.143-0.18-0.251-0.398-0.325-0.652
			c-0.076-0.255-0.115-0.537-0.115-0.842c0-0.646,0.148-1.161,0.439-1.533c0.294-0.375,0.682-0.561,1.158-0.561
			c0.333,0,0.607,0.074,0.821,0.226c0.219,0.148,0.423,0.375,0.622,0.674c0.109,0.157,0.209,0.268,0.299,0.339
			c0.089,0.068,0.201,0.104,0.338,0.104c0.201,0,0.377-0.068,0.523-0.203c0.144-0.135,0.215-0.3,0.215-0.492
			c0-0.191-0.063-0.397-0.193-0.617c-0.127-0.218-0.314-0.423-0.555-0.62c-0.245-0.192-0.541-0.352-0.891-0.474
			c-0.353-0.123-0.736-0.184-1.157-0.184c-0.673,0-1.259,0.139-1.746,0.419c-0.486,0.279-0.858,0.674-1.113,1.183
			c-0.259,0.511-0.387,1.098-0.387,1.765c0,0.981,0.282,1.764,0.841,2.35c0.563,0.582,1.345,0.875,2.348,0.875
			c0.469,0,0.893-0.065,1.269-0.192c0.377-0.126,0.687-0.294,0.934-0.501c0.249-0.207,0.434-0.425,0.554-0.656
			c0.121-0.229,0.182-0.446,0.182-0.646c0-0.169-0.067-0.331-0.199-0.481C307.191,475.486,307.026,475.409,306.828,475.409z"/>
		<path id="XMLID_118_" style="fill:#94696C;" d="M313.639,472.445c-0.288-0.29-0.628-0.517-1.027-0.674
			c-0.4-0.16-0.846-0.238-1.336-0.238c-0.482,0-0.923,0.078-1.325,0.234c-0.398,0.158-0.737,0.38-1.019,0.669
			c-0.281,0.288-0.498,0.636-0.649,1.045c-0.147,0.408-0.223,0.857-0.223,1.348c0,0.485,0.076,0.929,0.218,1.331
			c0.152,0.401,0.37,0.75,0.658,1.048c0.284,0.293,0.626,0.521,1.015,0.676c0.393,0.16,0.835,0.239,1.325,0.239
			c0.493,0,0.937-0.079,1.336-0.234c0.394-0.157,0.736-0.382,1.02-0.675c0.286-0.291,0.502-0.641,0.655-1.049
			c0.146-0.409,0.222-0.855,0.222-1.336c0-0.489-0.074-0.932-0.221-1.339C314.14,473.089,313.924,472.742,313.639,472.445z
			 M312.447,476.361c-0.289,0.372-0.681,0.557-1.171,0.557c-0.324,0-0.604-0.086-0.845-0.253c-0.24-0.168-0.423-0.41-0.554-0.729
			c-0.129-0.316-0.193-0.684-0.193-1.108c0-0.428,0.066-0.803,0.197-1.124c0.131-0.322,0.315-0.564,0.556-0.727
			c0.242-0.164,0.521-0.246,0.839-0.246c0.49,0,0.882,0.182,1.171,0.555c0.289,0.367,0.436,0.881,0.436,1.543
			C312.882,475.479,312.736,475.992,312.447,476.361z"/>
		<path id="XMLID_117_" style="fill:#94696C;" d="M324.276,472.553c-0.159-0.322-0.398-0.573-0.716-0.747
			c-0.321-0.173-0.705-0.262-1.146-0.262c-0.381,0-0.726,0.08-1.038,0.241c-0.314,0.161-0.607,0.408-0.881,0.738
			c-0.191-0.326-0.432-0.572-0.725-0.735c-0.292-0.162-0.642-0.243-1.048-0.243c-0.394,0-0.748,0.079-1.07,0.241
			c-0.319,0.156-0.62,0.403-0.903,0.738v-0.153c0-0.261-0.073-0.466-0.221-0.615c-0.15-0.145-0.334-0.222-0.558-0.222
			c-0.227,0-0.412,0.078-0.555,0.238c-0.14,0.157-0.21,0.389-0.21,0.694v4.636c0,0.336,0.078,0.591,0.236,0.764
			c0.156,0.171,0.356,0.258,0.604,0.258c0.248,0,0.447-0.087,0.603-0.258c0.149-0.173,0.226-0.428,0.226-0.764v-2.189
			c0-0.683,0.087-1.206,0.254-1.566c0.168-0.369,0.516-0.55,1.047-0.55c0.264,0,0.459,0.073,0.582,0.22
			c0.121,0.142,0.198,0.331,0.226,0.552c0.027,0.226,0.04,0.544,0.04,0.952v2.582c0,0.342,0.078,0.594,0.232,0.766
			c0.149,0.171,0.349,0.255,0.594,0.255c0.254,0,0.455-0.084,0.612-0.255c0.155-0.172,0.23-0.425,0.23-0.766v-2.154
			c0-0.694,0.061-1.178,0.177-1.452c0.109-0.21,0.259-0.384,0.45-0.508c0.193-0.126,0.395-0.192,0.609-0.192
			c0.264,0,0.462,0.073,0.595,0.215c0.128,0.142,0.21,0.318,0.239,0.529c0.028,0.209,0.043,0.487,0.043,0.836v2.726
			c0,0.336,0.079,0.591,0.235,0.764c0.156,0.171,0.356,0.258,0.603,0.258c0.253,0,0.458-0.084,0.611-0.255
			c0.154-0.172,0.23-0.425,0.23-0.766v-3.164C324.483,473.309,324.414,472.848,324.276,472.553z"/>
		<path id="XMLID_116_" style="fill:#94696C;" d="M245.357,474.954c-0.031-0.148-0.055-0.294-0.073-0.439
			c0.018,0.146,0.043,0.293,0.072,0.439C245.357,474.954,245.357,474.954,245.357,474.954z"/>
		<path id="XMLID_115_" style="fill:#94696C;" d="M248.78,468.684c0.617-0.206,1.153-0.331,1.639-0.383
			c0.476-0.051,0.834-0.073,1.126-0.073c0.314,0,0.544,0.025,0.809,0.07l0.076-0.477c0,0-0.732-0.225-1.694-0.146l-0.076-0.259
			c0.299-0.063,0.524-0.329,0.524-0.646c0-0.364-0.297-0.658-0.66-0.658c-0.365,0-0.66,0.295-0.66,0.658
			c0,0.317,0.225,0.583,0.522,0.646l0.084,0.289c-1.021,0.14-1.834,0.539-1.834,0.539L248.78,468.684z"/>
		<path id="XMLID_114_" style="fill:#94696C;" d="M245.883,470.634c0.024-0.031,0.047-0.06,0.071-0.089l-0.196-0.141l-0.305-0.223
			c-0.017,0.024-0.497,0.465-0.876,1.279c-0.016-0.026-0.035-0.051-0.056-0.074c-0.113-0.124-0.272-0.187-0.473-0.184
			c-0.002,0-0.006,0-0.01,0c-0.124,0-0.21-0.042-0.266-0.092c0.055-0.071,0.089-0.16,0.089-0.258c0-0.23-0.187-0.418-0.419-0.418
			c-0.23,0-0.417,0.188-0.417,0.418c0,0.231,0.187,0.418,0.417,0.418c0.037,0,0.071-0.006,0.105-0.013
			c0.102,0.114,0.265,0.214,0.504,0.209c0.123-0.001,0.214,0.031,0.273,0.097c0.07,0.076,0.093,0.185,0.1,0.267
			c0,0-0.001,0.003-0.002,0.003c-0.272,0.743-0.195,1.668-0.195,1.668l0.661,0.026c0.013-0.337,0.062-0.926,0.232-1.394
			c0.328-0.906,0.741-1.472,0.757-1.496L245.883,470.634z"/>
		<path id="XMLID_113_" style="fill:#94696C;" d="M257.293,468.78c-0.229,0-0.417,0.187-0.417,0.418c0,0.036,0.005,0.07,0.015,0.103
			c-0.115,0.104-0.215,0.267-0.211,0.506c0.003,0.123-0.029,0.212-0.096,0.273c-0.052,0.047-0.12,0.072-0.184,0.088
			c-0.492-0.689-1.097-1.109-1.097-1.109l-0.475,0.508c0.359,0.326,0.725,0.734,1.08,1.243c0.247,0.352,0.499,0.806,0.71,1.259
			l0.64-0.304c0,0-0.292-0.722-0.703-1.369c0.071-0.025,0.143-0.064,0.206-0.12c0.126-0.113,0.187-0.273,0.183-0.474
			c-0.001-0.13,0.041-0.218,0.093-0.276c0.072,0.054,0.161,0.089,0.257,0.089c0.232,0,0.419-0.187,0.419-0.418
			C257.711,468.967,257.524,468.78,257.293,468.78z"/>
		<path id="XMLID_112_" style="fill:#94696C;" d="M255.633,474.53c-0.881,0.429-2.329,0.996-4.237,1.262
			c-0.749,0.104-1.474,0.142-2.142,0.142c-0.869,0-1.637-0.065-2.226-0.139c-0.672-0.085-1.198-0.189-1.52-0.261h-0.002
			c0.079,0.25,0.175,0.493,0.286,0.724c0.002,0.006,0.005,0.013,0.008,0.017c0.013,0.027,0.027,0.056,0.041,0.083
			c0.013,0.027,0.027,0.054,0.041,0.079c0.004,0.007,0.007,0.015,0.01,0.021c0.189,0.356,0.417,0.684,0.675,0.968
			c0.899,0.984,1.816,1.14,1.824,1.141l0.015,0.001l0.014,0.005c0.008,0.004,0.821,0.266,2.056,0.266
			c1.215,0,2.409-0.245,3.545-0.73c0.842-0.431,1.639-1.085,2.033-1.668c0.305-0.451,0.526-0.933,0.657-1.433
			c0.069-0.266,0.124-0.692,0.091-1.14C256.554,474.034,256.163,474.272,255.633,474.53z"/>
		<path id="XMLID_108_" style="fill:#94696C;" d="M251.323,475.268c1.829-0.254,3.218-0.795,4.061-1.204
			c0.7-0.34,1.151-0.647,1.324-0.774c-0.173-0.642-0.651-1.65-1.089-2.278c-1.253-1.79-2.604-2.25-3.297-2.364
			c-0.265-0.043-0.477-0.068-0.777-0.068c-0.279,0-0.626,0.022-1.089,0.071c-0.465,0.048-0.982,0.17-1.583,0.372
			c-0.842,0.282-1.604,0.724-2.203,1.279l-0.02,0.019c-0.089,0.082-0.275,0.254-0.488,0.525c-0.026,0.037-0.408,0.578-0.709,1.408
			c-0.226,0.622-0.216,1.527-0.216,1.537v0.002c0,0.212,0.012,0.423,0.035,0.632c0,0.005,0,0.008,0.001,0.011
			c0.002,0.027,0.007,0.052,0.01,0.079c0.018,0.145,0.043,0.291,0.074,0.439C245.795,475.065,248.405,475.674,251.323,475.268z
			 M253.828,470.431c0.6,0,1.09,0.488,1.09,1.089c0,0.601-0.489,1.09-1.09,1.09s-1.089-0.489-1.089-1.09
			C252.74,470.919,253.228,470.431,253.828,470.431z M248.679,470.387c0.973,0,1.76,0.788,1.76,1.76c0,0.972-0.788,1.758-1.76,1.758
			c-0.971,0-1.759-0.786-1.759-1.758C246.92,471.176,247.708,470.387,248.679,470.387z"/>
	</g>
</g>
</svg>
